<svg width="18" height="18" viewBox="0 0 18 18" fill="none" xmlns="http://www.w3.org/2000/svg">
<path d="M15.364 2.63605C13.6641 0.936176 11.404 0 9 0C6.59602 0 4.33589 0.936176 2.63602 2.63605C0.936141 4.33593 0 6.59602 0 9C0 11.404 0.936141 13.6641 2.63602 15.3639C4.33589 17.0638 6.59602 18 9 18C11.404 18 13.6641 17.0638 15.364 15.3639C17.0639 13.6641 18 11.404 18 9C18 6.59602 17.0639 4.33589 15.364 2.63605ZM9 16.2335C5.01142 16.2335 1.76653 12.9885 1.76653 9C1.76653 8.99346 1.76674 8.98699 1.76678 8.98052C1.76678 8.97887 1.76653 8.97729 1.76653 8.97564C1.76653 8.97286 1.76688 8.97019 1.76695 8.96745C1.7845 5.02668 4.96919 1.82053 8.9017 1.7678C8.90993 1.76741 8.91809 1.76657 8.92642 1.76657C8.93141 1.76657 8.93626 1.76716 8.94122 1.7673C8.96084 1.76716 8.98038 1.76657 9.00004 1.76657C12.9886 1.76657 16.2335 5.01149 16.2335 9.00004C16.2335 12.9886 12.9886 16.2335 9 16.2335Z" fill="url(#paint0_linear_2_116)"/>
<path d="M14.495 9.43454C14.2008 9.43454 13.9624 9.19611 13.9624 8.90199C13.9624 8.60787 14.2008 8.36944 14.495 8.36944H15.1369C14.8354 5.41365 12.4382 3.06883 9.45943 2.84868V3.40749C9.45943 3.70161 9.221 3.94003 8.92688 3.94003C8.63277 3.94003 8.39434 3.70161 8.39434 3.40749V2.86141C5.45963 3.14898 3.12199 5.50171 2.85751 8.44303H3.43238C3.7265 8.44303 3.96493 8.68146 3.96493 8.97557C3.96493 9.26969 3.7265 9.50812 3.43238 9.50812H2.85315C3.09801 12.4968 5.48252 14.8886 8.46795 15.1451V14.47C8.46795 14.1759 8.70638 13.9375 9.0005 13.9375C9.29462 13.9375 9.53305 14.1759 9.53305 14.47V15.1451C12.5429 14.8865 14.9419 12.4574 15.1534 9.43454H14.495ZM11.1563 7.59734L9.37709 9.37657C9.27722 9.47645 9.14179 9.53256 9.00054 9.53256C8.85931 9.53256 8.72382 9.47645 8.62398 9.37657L5.52696 6.27954C5.31897 6.07159 5.31897 5.73441 5.52696 5.52643C5.73491 5.31844 6.07209 5.31844 6.28008 5.52643L9.00057 8.24689L10.4032 6.84422C10.6112 6.63624 10.9484 6.63624 11.1564 6.84422C11.3643 7.05217 11.3643 7.38939 11.1563 7.59734Z" fill="url(#paint1_linear_2_116)"/>
<defs>
<linearGradient id="paint0_linear_2_116" x1="9.02786" y1="-18" x2="9.08065" y2="17.9999" gradientUnits="userSpaceOnUse">
<stop stop-color="#FFEDCB"/>
<stop offset="1" stop-color="#EFAB33"/>
</linearGradient>
<linearGradient id="paint1_linear_2_116" x1="9.0223" y1="-9.4478" x2="9.05835" y2="15.1451" gradientUnits="userSpaceOnUse">
<stop stop-color="#FFEDCB"/>
<stop offset="1" stop-color="#EFAB33"/>
</linearGradient>
</defs>
</svg>
