<svg width="20" height="20" viewBox="0 0 20 20" fill="none" xmlns="http://www.w3.org/2000/svg">
<path d="M5.89844 7.15387C5.5466 7.22575 5.20527 7.33797 4.90051 7.53438L4.26652 6.54903C4.76297 6.22922 5.31852 6.02289 5.89844 5.94V1.31653L0 2.48868V18.9178L5.89844 17.746V7.15387ZM3.55469 10H2.38281C2.38281 9.07016 2.68609 8.19297 3.26059 7.46399L4.1807 8.18953C3.77098 8.70969 3.55469 9.33567 3.55469 10Z" fill="url(#paint0_linear_2_126)"/>
<path d="M12.9297 12.8691V2.27704L7.07031 1.30048V17.723L12.9297 18.6995V14.0459C12.1579 13.9337 11.4223 13.6141 10.8303 13.1008L11.5982 12.215C11.9844 12.5501 12.4391 12.7703 12.9297 12.8691ZM7.70145 7.33411L8.18895 6.26868C9.02148 6.64919 9.71102 7.30665 10.1304 8.11978L9.08902 8.65767C8.78922 8.07626 8.29656 7.6065 7.70145 7.33411ZM9.9634 12.0514C9.60402 11.4311 9.41406 10.7216 9.41406 10C9.41406 9.85868 9.40434 9.71908 9.3843 9.58345L10.5447 9.41638C10.5716 9.60693 10.5859 9.80146 10.5859 10C10.5859 10.5156 10.7216 11.022 10.9773 11.4643L9.9634 12.0514Z" fill="url(#paint1_linear_2_126)"/>
<path d="M14.1016 18.6835L20 17.5113V1.08218L14.1016 2.25398V18.6835ZM16.4453 10.0011C16.4453 10.0003 16.4453 10.0007 16.4453 9.99999C16.4453 9.94276 16.4453 8.82812 16.4453 8.82812H17.6172V9.99999C17.6176 10.3922 17.5622 10.7808 17.453 11.1547L16.328 10.8251C16.4064 10.5585 16.4459 10.2815 16.4453 10.0011ZM15.9023 11.6994L16.8568 12.3792C16.324 13.1265 15.5481 13.6792 14.6709 13.9367L14.3413 12.8118C14.9673 12.6287 15.5218 12.2333 15.9023 11.6994Z" fill="url(#paint2_linear_2_126)"/>
<defs>
<linearGradient id="paint0_linear_2_126" x1="2.95835" y1="-16.2848" x2="3.11237" y2="18.9171" gradientUnits="userSpaceOnUse">
<stop stop-color="#FFEDCB"/>
<stop offset="1" stop-color="#EFAB33"/>
</linearGradient>
<linearGradient id="paint1_linear_2_126" x1="10.0091" y1="-16.0986" x2="10.1606" y2="18.6988" gradientUnits="userSpaceOnUse">
<stop stop-color="#FFEDCB"/>
<stop offset="1" stop-color="#EFAB33"/>
</linearGradient>
<linearGradient id="paint2_linear_2_126" x1="17.0599" y1="-16.5191" x2="17.2139" y2="18.6828" gradientUnits="userSpaceOnUse">
<stop stop-color="#FFEDCB"/>
<stop offset="1" stop-color="#EFAB33"/>
</linearGradient>
</defs>
</svg>
