<svg width="32" height="30" viewBox="0 0 32 30" fill="none" xmlns="http://www.w3.org/2000/svg">
<rect width="32" height="30" rx="10" fill="url(#paint0_linear_2_63)"/>
<path d="M20.9093 8H11.7151C10.6771 8 9.88617 8.8 9.88617 9.85V19.15C9.88617 20.2 10.6771 21 11.7151 21H20.9093C21.9473 21 22.7382 20.2 22.7382 19.15V9.85C22.7382 8.8 21.9473 8 20.9093 8ZM16.3122 18.4C18.4377 18.4 20.1678 16.7 20.1678 14.65C20.1678 14.3 20.1184 13.9 20.0195 13.6H21.107V18.9C21.107 19.15 20.9093 19.4 20.6127 19.4H12.0117C11.7645 19.4 11.5174 19.2 11.5174 18.9V13.55H12.6543C12.5554 13.9 12.506 14.25 12.506 14.6C12.4566 16.7 14.1867 18.4 16.3122 18.4ZM16.3122 16.9C14.9281 16.9 13.8406 15.8 13.8406 14.45C13.8406 13.1 14.9281 12 16.3122 12C17.6963 12 18.7837 13.1 18.7837 14.45C18.7837 15.85 17.6963 16.9 16.3122 16.9ZM21.0576 11.55C21.0576 11.85 20.8104 12.1 20.5138 12.1H19.1297C18.8332 12.1 18.586 11.85 18.586 11.55V10.2C18.586 9.9 18.8332 9.65 19.1297 9.65H20.5138C20.8104 9.65 21.0576 9.9 21.0576 10.2V11.55Z" fill="white"/>
<defs>
<linearGradient id="paint0_linear_2_63" x1="6.8" y1="26.625" x2="26.5865" y2="4.723" gradientUnits="userSpaceOnUse">
<stop stop-color="#EEA054"/>
<stop offset="0.502762" stop-color="#D64763"/>
<stop offset="1" stop-color="#B62A99"/>
</linearGradient>
</defs>
</svg>
