<svg width="32" height="30" viewBox="0 0 32 30" fill="none" xmlns="http://www.w3.org/2000/svg">
<rect width="32" height="30" rx="10" fill="#2F89CE"/>
<ellipse cx="15.8177" cy="15" rx="14.8293" ry="15" fill="#2F89CE"/>
<path d="M8.16881 15.2399L11.5781 16.5175L12.9072 20.8148C12.965 21.1051 13.3117 21.1632 13.5428 20.989L15.4497 19.4211C15.6231 19.2468 15.912 19.2468 16.1431 19.4211L19.5524 21.9181C19.7836 22.0924 20.1303 21.9762 20.1881 21.6859L22.7306 9.49079C22.7884 9.20043 22.4995 8.91008 22.2106 9.02622L8.16881 14.485C7.82211 14.6011 7.82211 15.1238 8.16881 15.2399ZM12.7338 15.8787L19.4369 11.7556C19.5524 11.6975 19.668 11.8717 19.5524 11.9298L14.0629 17.0982C13.8895 17.2724 13.7162 17.5047 13.7162 17.7951L13.5428 19.1888C13.5428 19.363 13.2539 19.4211 13.1961 19.1888L12.5027 16.6336C12.3293 16.3433 12.4449 15.9948 12.7338 15.8787Z" fill="white"/>
</svg>
