<svg width="32" height="30" viewBox="0 0 32 30" fill="none" xmlns="http://www.w3.org/2000/svg">
<rect width="32" height="30" rx="10" fill="#48C95F"/>
<ellipse cx="14.8293" cy="15" rx="14.8293" ry="15" fill="#48C95F"/>
<path d="M20.5681 10.1875C19.173 8.78125 17.3129 8 15.3494 8C11.2675 8 7.9606 11.3333 7.9606 15.4479C7.9606 16.75 8.32229 18.0521 8.94233 19.1458L7.90894 23L11.8359 21.9583C12.9209 22.5312 14.1093 22.8438 15.3494 22.8438C19.4313 22.8438 22.7382 19.5104 22.7382 15.3958C22.6865 13.4688 21.9632 11.5937 20.5681 10.1875ZM18.9146 18.1042C18.7596 18.5208 18.0362 18.9375 17.6745 18.9896C17.3645 19.0417 16.9512 19.0417 16.5378 18.9375C16.2795 18.8333 15.9178 18.7292 15.5044 18.5208C13.6443 17.7396 12.4559 15.8646 12.3526 15.7083C12.2492 15.6042 11.5775 14.7187 11.5775 13.7812C11.5775 12.8437 12.0425 12.4271 12.1975 12.2187C12.3525 12.0104 12.5592 12.0104 12.7142 12.0104C12.8176 12.0104 12.9726 12.0104 13.0759 12.0104C13.1793 12.0104 13.3343 11.9583 13.4893 12.3229C13.6443 12.6875 14.006 13.625 14.0577 13.6771C14.1093 13.7813 14.1093 13.8854 14.0577 13.9896C14.006 14.0938 13.9543 14.1979 13.851 14.3021C13.7476 14.4062 13.6443 14.5625 13.5926 14.6146C13.4893 14.7187 13.3859 14.8229 13.4893 14.9792C13.5926 15.1875 13.9543 15.7604 14.5227 16.2812C15.2461 16.9062 15.8144 17.1146 16.0211 17.2188C16.2278 17.3229 16.3311 17.2708 16.4345 17.1667C16.5378 17.0625 16.8995 16.6458 17.0028 16.4375C17.1062 16.2292 17.2612 16.2813 17.4162 16.3333C17.5712 16.3854 18.5013 16.8542 18.6563 16.9583C18.863 17.0625 18.9663 17.1146 19.018 17.1667C19.0696 17.3229 19.0696 17.6875 18.9146 18.1042Z" fill="white"/>
</svg>
